<?xml version="1.0" encoding="UTF-8"?>
<!-- Generator: Adobe Illustrator 18.0.0, SVG Export Plug-In . SVG Version: 6.00 Build 0)  -->
<!DOCTYPE svg PUBLIC "-//W3C//DTD SVG 1.1//EN" "http://www.w3.org/Graphics/SVG/1.1/DTD/svg11.dtd">
<svg version="1.1" id="Layer_1" xmlns="http://www.w3.org/2000/svg" xmlns:xlink="http://www.w3.org/1999/xlink" x="0px" y="0px" viewBox="0 0 50 50" enable-background="new 0 0 50 50" xml:space="preserve">
<circle fill="#949699" cx="25" cy="25" r="24.5"/>
<g>
	<path fill="#FFFFFF" d="M38,22.6c0-0.2,0-0.4,0-0.6c0-5.7-4.6-10.3-10.3-10.3c-4.1,0-7.6,2.4-9.3,5.8c-0.8-0.6-1.8-1-2.9-1   c-2.6,0-4.7,2.1-4.7,4.7c0,0.5,0.1,0.9,0.2,1.4c-2,1.3-3.4,3.5-3.4,6.1c0,3.8,3.1,6.9,6.8,6.9l0,0h0.1h0h0h3.4L15.9,33   c-0.9-1.1-1.2-2.5-0.6-3.7c0.6-1.2,1.8-1.9,3.2-1.9h1.5v-3.8c0-2.3,1.8-4.1,4.1-4.1h1.4c2.3,0,4.1,1.8,4.1,4.1v3.8h1.5   c1.5,0,2.7,0.7,3.2,1.9c0.6,1.2,0.4,2.6-0.6,3.7l-2.2,2.6h3.4c0.1,0,0.2,0,0.4,0c3.7,0,6.8-3.1,6.8-6.8C42.2,26,40.5,23.6,38,22.6z   "/>
	<path fill="#FFFFFF" d="M31.3,30.2h-3.2c-0.4,0-0.8,0-1.2,0v-6.7c0-0.7-0.6-1.2-1.2-1.2h-1.4c-0.7,0-1.2,0.6-1.2,1.2v6.7   c-0.5,0-0.9,0-1.2,0h-3.2c-0.7,0-0.9,0.4-0.5,0.9l6,7.2c0.2,0.2,0.5,0.4,0.8,0.4c0.3,0,0.6-0.1,0.8-0.4l6-7.2   C32.1,30.6,31.9,30.2,31.3,30.2z"/>
</g>
</svg>